<svg width="68" height="69" viewBox="0 0 68 69" fill="none" xmlns="http://www.w3.org/2000/svg">
<path fill-rule="evenodd" clip-rule="evenodd" d="M1.63477 0.959106H14.7008V1.95911H1.63477V15.025H0.634766V1.95911V0.959106H1.63477ZM0.634766 53.9853V67.0511V68.0511H1.63477H14.7008V67.0511H1.63477V53.9853H0.634766ZM66.7267 53.9853V67.0511H53.6611V68.0511H66.7267H67.7267V67.0511V53.9853H66.7267ZM67.7267 15.025V1.95911V0.959106H66.7267H53.6611V1.95911H66.7267V15.025H67.7267Z" fill="#F0B537"/>
<path d="M5.67163 59.8464C6.99146 53.5111 12.68 40.8403 24.8757 40.8403" stroke="#F0B537"/>
<path d="M62.6899 59.8464C61.3701 53.5111 55.6815 40.8403 43.4859 40.8403" stroke="#F0B537"/>
<circle cx="33.7826" cy="23.1213" r="13.4576" stroke="#F0B537"/>
</svg>
