<svg width="68" height="69" viewBox="0 0 68 69" fill="none" xmlns="http://www.w3.org/2000/svg">
<path fill-rule="evenodd" clip-rule="evenodd" d="M1.46582 0.959106H14.5318V1.95911H1.46582V15.025H0.46582V1.95911V0.959106H1.46582ZM0.46582 53.9853V67.0511V68.0511H1.46582H14.5318V67.0511H1.46582V53.9853H0.46582ZM66.5578 53.9853V67.0511H53.4921V68.0511H66.5578H67.5578V67.0511V53.9853H66.5578ZM67.5578 15.025V1.95911V0.959106H66.5578H53.4921V1.95911H66.5578V15.025H67.5578Z" fill="#F0B537"/>
<path d="M18.4158 44.494L26.2559 34.8148C27.0032 33.8923 27.5167 32.8031 27.753 31.6397L28.5045 27.9399C28.7216 26.8714 29.1727 25.8644 29.8254 24.9911L35.1588 17.8566C35.5426 17.3432 36.146 17.0409 36.787 17.0409C37.5726 17.0409 38.2879 17.4936 38.6242 18.2035L38.8713 18.7253M38.8713 18.7253L35.5469 23.1578M38.8713 18.7253L39.1092 18.4262C40.449 16.7412 43.1615 17.7846 43.0269 19.9331M43.0269 19.9331L39.1373 25.3298M43.0269 19.9331C44.4714 17.9084 47.553 19.827 46.4886 22.0749M46.4886 22.0749L42.4173 27.8563M46.4886 22.0749C48.0974 20.7638 50.3446 22.6082 49.3723 24.4417L48.7558 25.6043L47.958 26.9698M47.958 26.9698L43.8801 32.998M47.958 26.9698L48.2569 28.5803C48.5788 30.3153 48.2682 32.1082 47.3815 33.6338L45.9137 36.159C45.0843 37.5859 43.8004 38.6935 42.2673 39.3047L39.9063 40.2459C38.7055 40.7246 37.6516 41.5104 36.8501 42.5245L29.3857 51.9692" stroke="#F0B537"/>
</svg>
