<svg width="68" height="69" viewBox="0 0 68 69" fill="none" xmlns="http://www.w3.org/2000/svg">
<path fill-rule="evenodd" clip-rule="evenodd" d="M1.44336 0.959106H14.5093V1.95911H1.44336V15.025H0.443359V1.95911V0.959106H1.44336ZM0.443359 53.9853V67.0511V68.0511H1.44336H14.5093V67.0511H1.44336V53.9853H0.443359ZM66.5353 53.9853V67.0511H53.4696V68.0511H66.5353H67.5353V67.0511V53.9853H66.5353ZM67.5353 15.025V1.95911V0.959106H66.5353H53.4696V1.95911H66.5353V15.025H67.5353Z" fill="#F0B537"/>
<path d="M16.3101 47.9859L24.1502 38.3067C24.8974 37.3842 25.411 36.295 25.6473 35.1316L26.3966 31.4427C26.615 30.3672 27.0707 29.354 27.7303 28.4769L35.6224 17.983C35.8459 17.6858 36.1644 17.4741 36.5248 17.3831C37.6308 17.1037 38.6737 18.0189 38.5404 19.1518L38.4845 19.627M38.4845 19.627L33.4412 26.6497M38.4845 19.627L42.2162 14.4027C43.464 12.6559 46.2148 13.8026 45.8523 15.9185M45.8523 15.9185L37.0316 28.8216M45.8523 15.9185L46.9674 14.5891C48.4934 12.7697 51.3316 14.7363 50.1641 16.8042L47.8946 20.07M47.8946 20.07L40.3116 31.3482M47.8946 20.07C49.6746 18.8121 51.887 20.9269 50.7108 22.7618L46.6501 29.0962L43.0088 34.457M43.0088 34.457L41.7744 36.4899M43.0088 34.457L49.1748 32.928C51.3083 32.3989 52.6119 35.1967 50.8344 36.4899L37.3174 43.7441C36.4271 44.2219 35.6445 44.8774 35.018 45.6702L27.28 55.4611" stroke="#F0B537"/>
</svg>
